<?xml version="1.0" encoding="utf-8"?>
<!-- Generator: Adobe Illustrator 27.7.0, SVG Export Plug-In . SVG Version: 6.00 Build 0)  -->
<svg version="1.1" id="Layer_1" xmlns="http://www.w3.org/2000/svg" xmlns:xlink="http://www.w3.org/1999/xlink" x="0px" y="0px"
	 viewBox="0 0 200 200" style="enable-background:new 0 0 200 200;" xml:space="preserve">
<g>
	<path d="M115.7,37.3c0-0.7,0.6-1.3,1.3-1.3c0.7,0,1.3,0.6,1.3,1.3l0,4.9c0,0.7-0.6,1.3-1.3,1.3s-1.3-0.6-1.3-1.3L115.7,37.3
		L115.7,37.3z M82.2,91.2c0-0.7,0.6-1.3,1.3-1.3c0.7,0,1.3,0.6,1.3,1.3l0.1,13.1c0,0.7-0.6,1.3-1.3,1.3c-0.7,0-1.3-0.6-1.3-1.3
		L82.2,91.2L82.2,91.2z M77.1,88.9c0-0.7,0.6-1.3,1.3-1.3c0.7,0,1.3,0.6,1.3,1.3l0,8.8c0,0.7-0.6,1.3-1.3,1.3
		c-0.7,0-1.3-0.6-1.3-1.3L77.1,88.9L77.1,88.9z M72.3,85.2c0-0.7,0.6-1.3,1.3-1.3c0.7,0,1.3,0.6,1.3,1.3l0,7.8
		c0,0.7-0.6,1.3-1.3,1.3s-1.3-0.6-1.3-1.3L72.3,85.2L72.3,85.2z M94,111.6c0.3-0.7,0.5-1.5,0.7-2.2l-2.2-0.7
		c-0.2,0.7-0.5,1.4-0.7,2.2L94,111.6L94,111.6z M86.5,128.7c0.4-0.7,0.8-1.4,1.1-2l-2-1.1c-0.4,0.7-0.7,1.3-1.1,2L86.5,128.7
		L86.5,128.7z M90.7,120.3c0.3-0.7,0.6-1.4,0.9-2.2l-2.1-0.9c-0.3,0.7-0.6,1.4-0.9,2.1L90.7,120.3L90.7,120.3z M126.9,110.9
		c-0.3-0.7-0.5-1.4-0.7-2.2l-2.2,0.7c0.2,0.7,0.5,1.5,0.7,2.2L126.9,110.9L126.9,110.9z M134.2,127.5c-0.4-0.7-0.7-1.3-1.1-2l-2,1.1
		c0.4,0.7,0.7,1.4,1.1,2L134.2,127.5L134.2,127.5z M130.1,119.4c-0.3-0.7-0.6-1.4-0.9-2.1l-2.1,0.9c0.3,0.7,0.6,1.4,0.9,2.2
		L130.1,119.4L130.1,119.4z M99.3,17.1c0.7-0.2,1.4-0.4,2.1-0.5l-0.5-2.3c-0.8,0.2-1.6,0.4-2.3,0.6L99.3,17.1L99.3,17.1z M85,27.2
		c0.4-0.6,0.9-1.2,1.4-1.7l-1.7-1.5c-0.5,0.6-1,1.2-1.5,1.8L85,27.2L85,27.2z M91.4,21c0.6-0.4,1.2-0.8,1.9-1.2l-1.2-2
		c-0.7,0.4-1.3,0.8-2,1.3L91.4,21L91.4,21z M120.2,14.9c-0.8-0.2-1.5-0.4-2.3-0.6l-0.5,2.3c0.7,0.1,1.4,0.3,2.1,0.5L120.2,14.9
		L120.2,14.9z M135.6,25.8c-0.5-0.6-1-1.3-1.5-1.8l-1.7,1.5c0.5,0.6,1,1.1,1.4,1.7L135.6,25.8L135.6,25.8z M128.7,19.2
		c-0.7-0.5-1.3-0.9-2-1.3l-1.2,2c0.6,0.4,1.3,0.8,1.9,1.2L128.7,19.2L128.7,19.2z M146.9,65.3c0.3,0.3,0.6,0.8,0.8,1.2
		c0.4,1,0.5,2.1,0.2,3.3c0,0.1,0,0.2-0.1,0.3c-0.4,1.1-1.1,2-2,2.6c-0.5,0.3-1,0.5-1.5,0.6c0.5,0.8,0.7,1.8,0.7,2.9
		c0,1.5-0.5,2.9-1.4,3.9c-0.9,1.1-2.2,1.7-3.6,1.7c-0.7,0-1.4-0.2-2-0.5c-0.1,1.1-0.2,2.1-0.6,3.2c-0.1,0.4-0.2,0.8-0.4,1.2
		c-1.4,3.8-4.2,6.8-7.4,8.6c-0.7,0.4-1.5,0.8-2.3,1l0.2,5.4c1-0.5,1.9-0.5,2.7-0.1c0.9,0.5,1.5,1.4,2.1,3c1.8,5.2,3.2,8.4,5.1,11.1
		c1.9,2.7,4.3,5,7.9,8.4c0.2,0.2,0.4,0.4,0.5,0.7c0.2,0.5,0.2,1.3-0.1,2.3c3.1,1.7,6.6,3.4,10.2,4.8c3.6,1.4,7.1,2.6,10.2,3.3
		c0.4-0.4,0.9-0.8,1.4-1c1-0.5,2-0.7,3.1-0.5c0.7,0.1,1.4,0.4,2.1,1c9.7,6.9,15.6,16.7,19.3,27.8c3.7,10.9,5.2,23.1,6.2,34.8
		c0.1,0.7-0.5,1.4-1.2,1.4c-0.7,0.1-1.4-0.5-1.4-1.2c-0.9-11.6-2.4-23.5-6-34.2c-3.6-10.6-9.2-19.9-18.4-26.5
		c-0.4-0.3-0.8-0.4-1.1-0.5c-0.5-0.1-1,0-1.4,0.2c-0.4,0.2-0.8,0.5-1.1,0.9c0,0-0.1,0.1-0.1,0.1c-0.1,0.1-0.1,0.1-0.2,0.2
		c-0.5,0.7-0.8,1.5-1,2.3c-1.3,6.8-7.6,15.1-15.3,23.1c-11.1,11.4-25.4,22.3-32.7,26.7c-0.1,0.1-0.2,0.1-0.3,0.1
		c1.6,2,3.3,3.9,5,5.8c0.5,0.5,0.4,1.4-0.1,1.9c-0.5,0.5-1.4,0.4-1.9-0.1c-6.1-6.8-11.6-14.1-17.1-21.4
		c-5.8-7.7-11.5-15.3-17.9-22.2l-0.1-0.2c-6.7-7.3-16.1-17.6-25.8-19.6c-1.1,4.2-2.2,8.3-3.4,12.5c5.5,4.2,10.4,9.6,14.5,14l0.1,0.2
		c6.5,7.1,12.3,14.7,18,22.4c3.3,4.4,6.6,8.8,10,13c0.5,0.6,0.4,1.4-0.2,1.8c-0.6,0.5-1.4,0.4-1.8-0.2c-3.5-4.3-6.7-8.7-10-13
		c-5.8-7.7-11.5-15.3-17.9-22.2l-0.1-0.2c-3.7-4.1-8.3-9-13.3-13c-4.8,16.7-10.3,33.4-16.1,47.9c-0.3,0.7-1,1-1.7,0.7
		c-0.7-0.3-1-1-0.7-1.7c7.7-19.3,14.9-42.3,20.6-64.4c5.7-22.3,9.8-43.5,11-58.7c0.2-2.8,0.4-5.8,0.6-8.9c0.5-7.9,1-16.6,2.4-24.3
		L4.3,176.9c-0.3,0.7-1.1,0.9-1.8,0.6c-0.7-0.3-0.9-1.1-0.6-1.8L74.5,27.8c1.5-3.8,3.9-7.3,6.8-10.4c5.6-6,13.3-10.3,20.7-11.9
		c1.3-0.3,2.7-0.5,4-0.6c0.1,0,0.1,0,0.2,0c0.5-0.8,1.3-1.6,2.3-2.1c0.2-0.1,0.5-0.3,0.8-0.4c0.3-0.2,0.8-0.2,1.1,0
		c0.3,0.1,0.5,0.3,0.8,0.4c1,0.6,1.8,1.4,2.3,2.3l0,0c0.2,0,0.3-0.1,0.5,0c0.8,0.1,1.6,0.3,2.4,0.4c7.8,1.7,15.8,6.1,21.6,12.2
		c3.9,4.2,6.7,9.1,7.8,14.7l33.6,93.3c0.2,0.7-0.1,1.4-0.8,1.7c-0.7,0.2-1.4-0.1-1.7-0.8l-30.9-85.7c0,0.1,0,0.1,0,0.2
		c-0.1,0.6-0.2,1.3-0.3,1.9c-0.3,1.5-0.8,2.8-1.2,4c-0.4,1.2-0.8,2.4-1,3.5c0.6-0.1,1.2-0.1,1.8,0.1l0,0c0.1,0,0.2,0.1,0.4,0.1
		c0.3,0.1,0.5,0.2,0.7,0.3c1.3,0.7,1.8,1.9,2,3.3c0.1,1.2-0.1,2.4-0.5,3.5c-0.1,0.3-0.2,0.5-0.3,0.7c0.3,0.2,0.6,0.5,0.8,0.9
		c0.6,0.8,0.9,1.8,0.8,2.8c0,0.1,0,0.2-0.1,0.3c-0.2,1-0.8,1.8-1.6,2.3C147.4,65.1,147.2,65.2,146.9,65.3L146.9,65.3z M139.9,70.5
		c-0.3-0.9-0.3-1.9,0-2.9l0,0c0-0.1,0-0.1,0.1-0.2c0.4-1.1,1.1-2.1,2-2.6c0.3-0.2,0.6-0.3,0.8-0.4c-0.1-0.1-0.2-0.2-0.2-0.4
		c-0.4-0.8-0.5-1.7-0.4-2.8c0.2-1,0.7-1.9,1.3-2.5c0.5-0.4,1-0.7,1.6-0.8c0.1-0.3,0.2-0.5,0.3-0.8c0.3-0.8,0.4-1.7,0.4-2.5
		c0-0.5-0.2-1-0.6-1.2c-0.1,0-0.2-0.1-0.2-0.1c-0.1,0-0.1,0-0.2-0.1l0,0l0,0c-0.6-0.1-1.2,0-1.6,0.3c-0.1,0.1-0.2,0.2-0.4,0.3
		c0,0,0,0,0,0c-0.7,0.7-1.2,1.8-1.5,2.9c-0.1,0.2-0.1,0.5-0.2,0.7c0,0.5-0.1,1.1-0.1,1.6c-0.2,2.2-1.1,6.7-2.7,11.8
		C138.6,70.7,139.3,70.5,139.9,70.5L139.9,70.5z M145.3,67.6c-0.2-0.4-0.5-0.7-0.8-0.8l0,0c-0.4-0.1-0.8,0-1.1,0.2
		c-0.4,0.3-0.7,0.7-0.9,1.2l0,0l0,0l0,0.1c-0.2,0.6-0.1,1.1,0.1,1.6c0.2,0.4,0.5,0.7,0.8,0.8c0.4,0.1,0.8,0,1.1-0.2
		c0.4-0.3,0.8-0.7,0.9-1.3l0,0C145.5,68.6,145.5,68,145.3,67.6L145.3,67.6z M111.6,109.3c0.8,0.5,1.4,1.2,1.8,1.9
		c0.6,1.1,0.8,2.2,0.2,3.4c-0.1,0.1-0.1,0.2-0.2,0.3c-0.3,0.5-0.7,1-1.1,1.3c0.9,0.9,1.7,2,2.2,3.2c0.8,1.8,1,3.9,0.3,5.4
		c-0.1,0.1-0.1,0.3-0.2,0.4c-0.6,0.9-1.3,1.7-2.1,2.2c1.5,1.1,2.8,2.5,3.7,3.9c1.1,2,1.5,4.1,0.5,6.2c-0.1,0.2-0.2,0.4-0.3,0.5
		c-0.8,1.4-1.9,2.4-3,3.2c-0.1,0.1-0.2,0.2-0.4,0.2c3.7-0.3,7.4-1,11.2-2.1c-0.2-0.2-0.3-0.4-0.4-0.6c-1.7-5.6-2.8-9.4-3.6-13.9
		c-0.8-4.2-1.5-9.2-2.2-16.9C115.8,108.7,113.7,109.1,111.6,109.3L111.6,109.3z M107.1,116.2c-0.4-0.4-0.8-0.8-1.1-1.3
		c-0.1-0.1-0.1-0.2-0.2-0.3c-0.6-1.2-0.4-2.3,0.2-3.4c0.4-0.7,1.1-1.4,1.8-1.9c-2.2-0.1-4.5-0.5-6.7-1.2c-0.7,7.7-1.4,12.6-2.2,16.9
		c-0.9,4.5-2,8.3-3.6,13.9c-0.1,0.3-0.2,0.5-0.4,0.6c3.7,1.2,7.5,1.8,11.3,2.1c-0.1-0.1-0.3-0.2-0.4-0.3c-1.1-0.8-2.2-1.9-3-3.2
		c-0.1-0.2-0.2-0.3-0.3-0.5c-1-2-0.6-4.2,0.5-6.2c0.8-1.5,2.1-2.8,3.7-3.9c-0.8-0.6-1.5-1.3-2.1-2.2c-0.1-0.1-0.1-0.2-0.2-0.4
		c-0.8-1.6-0.5-3.6,0.5-5.5C105.4,118.2,106.2,117.1,107.1,116.2L107.1,116.2z M109.8,111.2c-0.6,0.4-1.1,0.8-1.4,1.3
		c-0.2,0.3-0.3,0.6-0.1,0.9c0,0,0,0,0,0.1c0.2,0.4,0.5,0.7,0.8,0.9c0.3,0.2,0.5,0.3,0.7,0.3l0,0l0,0h0c0.2,0,0.4-0.1,0.7-0.3
		c0.3-0.2,0.6-0.5,0.8-0.9c0,0,0-0.1,0-0.1c0.1-0.3,0.1-0.6-0.1-0.9C110.9,112.1,110.4,111.6,109.8,111.2L109.8,111.2z M109.8,117.5
		c-1.1,0.7-2,1.8-2.6,3.1c-0.6,1.2-0.8,2.4-0.4,3.2c0,0,0,0.1,0.1,0.1c0.4,0.6,0.9,1.2,1.4,1.5c0.5,0.3,1,0.5,1.4,0.5l0,0l0,0h0
		c0.4,0,0.9-0.2,1.4-0.5c0.5-0.4,1-0.9,1.4-1.5c0-0.1,0.1-0.1,0.1-0.1c0.4-0.8,0.2-2.1-0.3-3.2C111.6,119.3,110.8,118.2,109.8,117.5
		L109.8,117.5z M109.6,128.7c-0.2,0.1-0.4,0.2-0.6,0.3c-1.6,1-3,2.3-3.8,3.7c-0.7,1.3-1,2.6-0.4,3.7c0,0.1,0.1,0.2,0.2,0.3
		c0.6,1,1.4,1.8,2.2,2.4c0.8,0.5,1.6,0.8,2.3,0.8l0,0c0.7,0,1.5-0.3,2.3-0.8c0.8-0.6,1.6-1.4,2.2-2.4c0.1-0.1,0.1-0.2,0.2-0.3
		c0.6-1.2,0.3-2.5-0.4-3.7c-0.8-1.4-2.2-2.7-3.8-3.7C109.9,128.9,109.7,128.8,109.6,128.7L109.6,128.7z M126.3,138.1
		c0.1,0.2,0.1,0.4,0,0.6c0.3-0.1,0.6-0.2,0.9-0.3c6.1-2.2,10.1-5,12.5-7.6c1.5-1.6,2.4-3.1,2.9-4.3c0.4-0.8,0.5-1.4,0.5-1.7
		c-3.6-3.4-6.1-5.8-8.1-8.6c-2-2.9-3.6-6.3-5.4-11.7c-0.3-0.9-0.5-1.3-0.7-1.4c-0.1-0.1-0.5,0.1-1.1,0.5c-2.5,1.5-5,2.7-7.4,3.7
		c0.8,7.9,1.4,12.9,2.3,17.2C123.6,128.9,124.7,132.6,126.3,138.1L126.3,138.1z M92.8,138.8c-0.1-0.2-0.1-0.5,0-0.7
		c1.6-5.5,2.7-9.2,3.6-13.7c0.8-4.3,1.5-9.3,2.3-17.2c-2.4-0.9-4.9-2.1-7.4-3.7c-0.6-0.4-1-0.5-1.1-0.5c-0.2,0.1-0.4,0.6-0.7,1.4
		c-1.8,5.4-3.4,8.8-5.4,11.7c-2,2.9-4.4,5.2-8.1,8.7c0,0.2,0.1,0.8,0.5,1.6c0.5,1.2,1.4,2.7,2.9,4.3c2,2.1,5,4.4,9.4,6.4
		C90.1,137.8,91.4,138.3,92.8,138.8L92.8,138.8z M105.6,7.7c-1,0.1-2.1,0.3-3.1,0.5c-6.9,1.5-14.1,5.5-19.3,11.1
		c-2.6,2.8-4.7,5.9-6.1,9.3c0,0.1,0,0.1-0.1,0.2l0,0.1c-1.4,3.3-2,6.9-1.7,10.7c0.1,1,0.2,2,0.4,3c0.3,1.4,1.3,3.2,2.3,5.1
		c0.2,0.3,0.4,0.7,0.5,1c1.1-7.9,4.2-13.4,8.7-17.7c4.7-4.5,10.9-7.7,18-10.7c-0.2-0.3-0.5-0.6-0.7-0.9c-0.1-0.1-0.1-0.2-0.2-0.4
		c-0.8-1.6-0.5-3.6,0.5-5.5c0.6-1.2,1.4-2.3,2.4-3.2c-0.4-0.4-0.8-0.8-1.1-1.3c-0.1-0.1-0.1-0.2-0.2-0.3
		C105.7,8.2,105.6,7.9,105.6,7.7L105.6,7.7z M80.7,54.4c0,0.3,0,0.6,0,0.9c0,1.2,0.1,2.4,0.2,3.6c0.4,3.4,2.3,12.1,6.1,20.6
		c2.4,5.3,5.5,10.4,9.4,13.9c3.4,3,8.2,4.6,12.9,4.6c3.3,0,6.6-0.6,9.5-2.1c0,0-0.1,0-0.1,0c-0.3-0.1-0.6-0.2-1-0.3
		c-3.2-1.2-5.5-3.5-6.9-6.4c-1.3-2.9-1.6-6.3-0.6-9.8c0.1-0.4,0.2-0.8,0.4-1.2c0.3-0.7,1-1,1.7-0.8c0.7,0.3,1,1,0.8,1.7
		c-0.1,0.3-0.2,0.7-0.3,1c-0.8,2.8-0.6,5.7,0.5,8c1.1,2.3,2.9,4.1,5.4,5.1c0.2,0.1,0.5,0.2,0.8,0.3c0.9,0.3,1.8,0.4,2.8,0.4
		c0.1,0,0.1-0.1,0.2-0.1c4-3.4,7.2-8.5,9.6-13.9c0.7-1.6,1.4-3.2,2-4.7c-1.1-1.9-2.8-3.4-4.9-4.2c-0.2-0.1-0.5-0.2-0.8-0.3
		c-1.1-0.3-2.3-0.4-3.5-0.4c-1.2,0.1-2.4,0.3-3.6,0.8c-0.7,0.3-1.4-0.1-1.7-0.8c-0.3-0.7,0.1-1.4,0.8-1.7c1.4-0.5,2.9-0.9,4.4-0.9
		c1.5-0.1,2.9,0.1,4.3,0.5c0.3,0.1,0.6,0.2,1,0.3c2.1,0.8,3.8,2,5.1,3.6c1.9-5.7,2.9-10.7,3.2-13.1c0.1-0.5,0.1-1.1,0.1-1.6
		c0-0.1,0-0.1,0-0.2c0-0.6,0.1-1.3,0.1-1.9c0-1.2,0-2.4-0.1-3.6c-0.6-8.6-3.6-14.5-8.2-18.9c-4-3.9-9.3-6.7-15.5-9.4
		c0.6,0.6,1.1,1.3,1.5,2.1c1.1,2,1.5,4.1,0.5,6.2c-0.1,0.2-0.2,0.4-0.3,0.5c-0.8,1.4-1.9,2.4-3,3.2c-1.2,0.8-2.6,1.3-3.8,1.3
		c-1.2,0-2.6-0.4-3.8-1.3c-1.1-0.8-2.2-1.9-3-3.2c-0.1-0.2-0.2-0.3-0.3-0.5c-1-2-0.6-4.2,0.5-6.2c0.4-0.7,0.9-1.4,1.5-2.1
		C98.3,26,93,28.8,89,32.7c-4.6,4.4-7.5,10.2-8.2,18.9C80.7,52.5,80.7,53.5,80.7,54.4L80.7,54.4z M78.1,55.3c0-0.1,0-0.1,0-0.2
		c0-0.2,0-0.4,0-0.6c-0.2-1.5-1.3-3.7-2.5-5.8c-0.7-1.3-1.5-2.7-2-3.9c-0.8,6.1-1.2,12.6-1.5,18.7c-0.2,3.2-0.4,6.3-0.6,9
		c-1.2,15.1-5.2,36.1-10.9,58.2c0.1,0,0.2,0,0.2,0.1c2.6-0.6,5.5-1.4,8.1-2.4c1.7-0.6,3.3-1.3,4.5-2.1c-0.3-1.1-0.2-2,0-2.6
		c0.1-0.2,0.2-0.4,0.4-0.6c3.6-3.4,6-5.7,7.9-8.4c1.9-2.7,3.3-5.9,5.1-11.1c0.5-1.5,1.1-2.5,2.1-3c0.8-0.4,1.6-0.3,2.7,0.1l0.3-8
		c0-0.1,0-0.2,0-0.3c-3-3.4-5.4-7.7-7.3-12c-0.2-0.5-0.5-1.1-0.7-1.6c-0.1,0.2-0.3,0.4-0.4,0.6c-0.8,1-2,1.6-3.3,1.6
		c-1.3,0-2.4-0.6-3.3-1.6c-0.8-0.9-1.3-2.1-1.3-3.5c0-1.3,0.5-2.5,1.2-3.4c-0.4-0.8-0.8-1.9-1.2-3.1c-0.3-0.8-0.5-1.6-0.7-2.4
		c-0.3-0.1-0.6-0.3-0.9-0.4c-0.6-0.4-1.2-1.1-1.4-1.9c0-0.1-0.1-0.2-0.1-0.3c-0.1-0.8,0.1-1.6,0.5-2.2c0.5-0.7,1.3-1.2,2-1.4
		c0.8-0.1,1.6,0.1,2.2,0.7c0.5,0.5,0.9,1.2,1.1,2c0.1,0.8,0,1.6-0.3,2.2c-0.2,0.3-0.4,0.6-0.6,0.8c0.2,0.7,0.4,1.4,0.6,2.1
		c0.3,0.9,0.7,1.8,1,2.5c0.4-0.1,0.7-0.2,1.1-0.2c0.3,0,0.6,0,0.8,0.1c-1.6-5.2-2.5-9.7-2.7-11.9C78.2,57.9,78.1,56.6,78.1,55.3
		L78.1,55.3z M113.9,7.7c-0.1,0.2-0.1,0.5-0.3,0.7c-0.1,0.1-0.1,0.2-0.2,0.3c-0.3,0.5-0.7,1-1.1,1.3c0.9,0.9,1.7,2,2.2,3.2
		c0.8,1.8,1,3.9,0.3,5.4c-0.1,0.1-0.1,0.3-0.2,0.4c-0.2,0.3-0.4,0.6-0.7,0.9c7.1,3.1,13.3,6.2,18,10.7c4.8,4.7,8,10.7,8.9,19.6
		c0.2-1.4,0.7-2.8,1.2-4.2c0.4-1.2,0.9-2.4,1.1-3.7c0.1-0.6,0.2-1.1,0.3-1.7c1.1-8.1-2.1-15.5-7.4-21.2c-5.4-5.8-12.9-9.9-20.2-11.5
		C115.2,7.9,114.6,7.8,113.9,7.7L113.9,7.7z M109.8,5.1c-0.6,0.4-1.1,0.8-1.4,1.3c-0.2,0.3-0.3,0.6-0.1,0.9c0,0,0,0,0,0.1
		c0.2,0.4,0.5,0.7,0.8,0.9c0.3,0.2,0.5,0.3,0.7,0.3l0,0l0,0h0c0.2,0,0.4-0.1,0.7-0.3c0.3-0.2,0.6-0.5,0.8-0.9c0,0,0-0.1,0-0.1
		c0.1-0.3,0.1-0.6-0.1-0.9C110.9,5.9,110.4,5.5,109.8,5.1L109.8,5.1z M50.6,104.1c0.2-0.7,0.9-1.2,1.6-1c0.7,0.2,1.2,0.9,1,1.6
		c-3.8,16.6-8.8,31.7-14.6,45.8c-5.8,14.1-12.4,27.1-19.3,39.6c-0.4,0.6-1.2,0.9-1.8,0.5c-0.6-0.4-0.9-1.2-0.5-1.8
		c6.9-12.4,13.4-25.3,19.2-39.3C41.9,135.5,46.8,120.5,50.6,104.1L50.6,104.1z M109.8,11.4c-1.1,0.7-2,1.8-2.6,3.1
		c-0.6,1.2-0.8,2.4-0.4,3.2c0,0,0,0.1,0.1,0.1c0.4,0.6,0.9,1.2,1.4,1.5c0.5,0.3,1,0.5,1.4,0.5l0,0l0,0h0c0.4,0,0.9-0.2,1.4-0.5
		c0.5-0.4,1-0.9,1.4-1.5c0-0.1,0.1-0.1,0.1-0.1c0.4-0.8,0.2-2.1-0.3-3.2C111.6,13.2,110.8,12.1,109.8,11.4L109.8,11.4z M65.5,132.3
		c8.6,3.9,16.5,12.4,22.4,18.8l0.1,0.2c6.5,7.1,12.3,14.7,18,22.4c3.4,4.5,6.8,9.1,10.4,13.5c0.1-0.2,0.3-0.4,0.5-0.5
		c7.2-4.3,21.3-15,32.2-26.2c7.4-7.6,13.4-15.5,14.6-21.7c0.1-0.7,0.4-1.4,0.7-2.1c-3-0.8-6.3-1.9-9.5-3.2c-3.5-1.4-7.1-3-10.2-4.8
		c-0.6,1.2-1.6,2.6-2.9,4c-2.7,2.8-7,5.9-13.5,8.3c-6.8,2.5-13.7,3.6-20.5,3.4c-6.7-0.2-13.4-1.8-20-4.7c-4.7-2.1-8-4.6-10.2-7
		c-1.3-1.4-2.2-2.7-2.9-3.9c-1.3,0.7-2.9,1.4-4.6,2.1C68.5,131.3,67,131.8,65.5,132.3L65.5,132.3z M94.5,95.1l-0.2,7.2
		c5.4,3,10.4,4.5,15.3,4.5c5,0,9.9-1.5,15.3-4.5l-0.2-6.1c-0.5,0.1-1,0.1-1.5,0.2c-3.8,2.9-8.8,4.3-13.8,4.2
		c-5.4-0.1-10.8-1.8-14.7-5.3C94.6,95.2,94.6,95.2,94.5,95.1L94.5,95.1z M108.2,76.2C108.1,76.2,108.1,76.1,108.2,76.2
		c-0.2-0.1-0.3-0.1-0.4-0.1c-1.2-0.4-2.1-0.2-2.9,0c-1.6,0.4-2.8,0.7-4.3-1.4c-1.8-2.5-0.9-3.6,1.3-6.4l0.2-0.3
		c0.4-0.6,1.3-0.7,1.8-0.2c0.6,0.4,0.7,1.3,0.2,1.8l-0.2,0.3c-1.3,1.7-1.9,2.4-1.2,3.2c0.5,0.6,0.9,0.5,1.5,0.4
		c0.3-0.1,0.6-0.1,0.9-0.2c-0.2-0.5-0.3-1-0.3-1.5c0-0.7,0.6-1.3,1.3-1.3c0.7,0,1.3,0.6,1.3,1.3c0,0.6,0.2,1.1,0.6,1.4
		c0.2,0.2,0.4,0.3,0.6,0.4c0.1,0,0.2,0.1,0.3,0.1c0.2,0.1,0.4,0.1,0.5,0.1c0.2,0,0.4-0.1,0.5-0.1c0.1,0,0.2-0.1,0.3-0.1
		c0.2-0.1,0.4-0.2,0.6-0.4c0.4-0.4,0.6-0.9,0.6-1.4c0-0.7,0.6-1.3,1.3-1.3c0.7,0,1.3,0.6,1.3,1.3c0,0.5-0.1,1-0.3,1.5
		c0.3,0.1,0.6,0.1,0.9,0.2c0.6,0.2,1.1,0.3,1.5-0.4c0.6-0.9,0.1-1.5-1.2-3.2l-0.2-0.3c-0.4-0.6-0.3-1.4,0.2-1.8
		c0.6-0.4,1.4-0.3,1.8,0.2l0.2,0.3c2.2,2.8,3.1,3.9,1.3,6.4c-1.5,2.1-2.7,1.8-4.3,1.4c-0.8-0.2-1.7-0.4-2.9,0
		c-0.1,0-0.2,0.1-0.3,0.1c0,0,0,0-0.1,0c-0.2,0.1-0.5,0.1-0.8,0.2c-0.1,0-0.3,0.1-0.4,0.1c-0.1,0-0.1,0-0.2,0c-0.1,0-0.1,0-0.2,0
		c-0.1,0-0.3,0-0.4-0.1C108.7,76.3,108.4,76.2,108.2,76.2L108.2,76.2z M80.2,73.6c-0.5,0-0.9,0.2-1.3,0.6c-0.4,0.4-0.6,1.1-0.6,1.8
		c0,0.7,0.2,1.3,0.6,1.8c0.3,0.4,0.8,0.6,1.3,0.6c0.5,0,0.9-0.2,1.3-0.6c0.4-0.4,0.6-1.1,0.6-1.8c0-0.7-0.2-1.3-0.6-1.8
		C81.2,73.8,80.7,73.6,80.2,73.6L80.2,73.6z M75.6,63.5c-0.1,0-0.2,0.1-0.3,0.3c-0.1,0.1-0.1,0.3-0.1,0.4c0,0.1,0.1,0.3,0.3,0.4
		c0.1,0.1,0.2,0.1,0.3,0.1c0,0,0,0,0,0l0,0c0,0-0.1,0,0,0c0.1-0.1,0.1-0.3,0.1-0.6C75.8,63.8,75.7,63.6,75.6,63.5
		C75.6,63.5,75.6,63.5,75.6,63.5L75.6,63.5z M100.8,37.3c0-0.7,0.6-1.3,1.3-1.3c0.7,0,1.3,0.6,1.3,1.3l0,4.9c0,0.7-0.6,1.3-1.3,1.3
		c-0.7,0-1.3-0.6-1.3-1.3L100.8,37.3L100.8,37.3z M109.6,22.6c-0.2,0.1-0.4,0.2-0.6,0.3c-1.6,1-3,2.3-3.8,3.7
		c-0.7,1.3-1,2.6-0.4,3.7c0,0.1,0.1,0.2,0.2,0.3c0.6,1,1.4,1.8,2.2,2.4c0.8,0.5,1.6,0.8,2.3,0.8l0,0c0.7,0,1.5-0.3,2.3-0.8
		c0.8-0.6,1.6-1.4,2.2-2.4c0.1-0.1,0.1-0.2,0.2-0.3c0.6-1.2,0.3-2.5-0.4-3.7c-0.8-1.4-2.2-2.7-3.8-3.7
		C109.9,22.8,109.7,22.7,109.6,22.6L109.6,22.6z M135.2,78.8c-0.3,0.7-0.6,1.4-0.9,2c-1.9,4.2-4.3,8.3-7.2,11.7c0,0.1,0,0.1,0,0.2
		c0.4-0.2,0.7-0.3,1.1-0.5c2.8-1.5,5.1-4.1,6.2-7.3c0.1-0.3,0.2-0.7,0.3-1C135.4,82.1,135.5,80.4,135.2,78.8L135.2,78.8z
		 M135.3,91.2c0-0.7,0.6-1.3,1.3-1.3c0.7,0,1.3,0.6,1.3,1.3l-0.1,13.1c0,0.7-0.6,1.3-1.3,1.3c-0.7,0-1.3-0.6-1.3-1.3L135.3,91.2
		L135.3,91.2z M140.5,88.9c0-0.7,0.6-1.3,1.3-1.3c0.7,0,1.3,0.6,1.3,1.3l0,8.8c0,0.7-0.6,1.3-1.3,1.3c-0.7,0-1.3-0.6-1.3-1.3
		L140.5,88.9L140.5,88.9z M145.3,85.2c0-0.7,0.6-1.3,1.3-1.3c0.7,0,1.3,0.6,1.3,1.3l0,7.8c0,0.7-0.6,1.3-1.3,1.3
		c-0.7,0-1.3-0.6-1.3-1.3L145.3,85.2L145.3,85.2z M141.6,73.9c-0.4-0.5-1-0.8-1.6-0.8s-1.2,0.3-1.6,0.8c-0.5,0.6-0.8,1.3-0.8,2.2
		c0,0.9,0.3,1.7,0.8,2.2c0.4,0.5,1,0.8,1.6,0.8c0.6,0,1.2-0.3,1.6-0.8c0.5-0.6,0.8-1.3,0.8-2.2C142.4,75.3,142.1,74.5,141.6,73.9
		L141.6,73.9z M146.4,61.1c-0.2-0.3-0.4-0.5-0.6-0.5c0,0-0.1,0-0.1,0c-0.1,0-0.2,0.1-0.4,0.2c-0.2,0.2-0.4,0.6-0.5,1
		c-0.1,0.4,0,0.8,0.1,1.1c0.1,0.2,0.2,0.3,0.3,0.3c0.2,0,0.6-0.1,0.9-0.3c0.3-0.2,0.5-0.5,0.6-0.8C146.7,61.7,146.6,61.3,146.4,61.1
		L146.4,61.1z M105.7,40.2c0-0.7,0.6-1.3,1.3-1.3c0.7,0,1.3,0.6,1.3,1.3l0,5.5c0,0.7-0.6,1.3-1.3,1.3s-1.3-0.6-1.3-1.3L105.7,40.2
		L105.7,40.2z M110.8,39.7c0-0.7,0.6-1.3,1.3-1.3s1.3,0.6,1.3,1.3l0,5.9c0,0.7-0.6,1.3-1.3,1.3c-0.7,0-1.3-0.6-1.3-1.3L110.8,39.7
		L110.8,39.7z"/>
</g>
</svg>
