<svg xmlns="http://www.w3.org/2000/svg" width="26" height="26" viewBox="0 0 26 26">
    <defs>
        <linearGradient id="a" x1="50%" x2="50%" y1="0%" y2="100%">
            <stop offset="0%" stop-color="#F4F1FF"/>
            <stop offset="100%" stop-color="#E0D7FF"/>
        </linearGradient>
    </defs>
    <g fill="none" fill-rule="evenodd">
        <circle cx="12" cy="12" r="12" fill="url(#a)" stroke="#6030FF" stroke-width="1.895" transform="translate(1 1)"/>
        <g fill="#6030FF">
            <path d="M11.412 7.778l.01 5.868a17.61 17.61 0 0 0 .82.02c.953 0 1.676-.254 2.169-.76.492-.505.739-1.248.739-2.228 0-.91-.215-1.62-.644-2.132-.429-.512-1.022-.768-1.778-.768h-1.316zM9 7.024h4.119c1.29 0 2.28.313 2.97.94.69.626 1.034 1.531 1.034 2.714 0 1.145-.397 2.06-1.191 2.744-.795.684-1.87 1.026-3.223 1.026a15.957 15.957 0 0 1-1.297-.038v2.595c0 .649.059 1.175.177 1.58.117.403.3.815.548 1.235H9a5.32 5.32 0 0 0 .53-1.236c.11-.404.166-.93.166-1.579V9.829c0-.649-.056-1.174-.167-1.574A5.348 5.348 0 0 0 9 7.024zM16 6h2.03v2.047"/>
        </g>
    </g>
</svg>
