<svg width="32" height="32" viewBox="0 0 32 32" xmlns="http://www.w3.org/2000/svg">
    <g fill="none" fill-rule="evenodd">
        <path d="M0 0h32v32H0z"/>
        <g fill="#FFF" stroke="#212121" stroke-width="1.167">
            <path d="M18.74 6c4.746 0 8.593 3.876 8.593 8.657a8.669 8.669 0 0 1-1.068 4.184l-7.224-4.017a.583.583 0 0 1-.3-.51V6z"/>
            <path d="M15.926 7.353v7.97c0 .424.23.814.6 1.02l6.924 3.85c-1.464 2.668-4.285 4.474-7.524 4.474-4.746 0-8.593-3.876-8.593-8.657 0-4.781 3.847-8.657 8.593-8.657z"/>
        </g>
    </g>
</svg>
